<svg xmlns="http://www.w3.org/2000/svg" width="836" height="1254" viewBox="0 0 836 1254">
<g>
<path d="M 230.56 745.83 C197.56,743.16 178.51,730.32 169.23,704.50 C163.98,689.91 163.54,661.83 168.35,648.00 C171.46,639.02 173.76,636.78 179.40,637.20 C183.93,637.53 183.70,637.14 186.44,649.50 C189.90,665.06 199.81,679.25 211.21,684.95 C214.57,686.63 217.86,688.00 218.51,688.00 C219.28,688.00 219.94,685.24 220.36,680.30 C222.57,654.07 236.76,628.70 261.09,607.46 C272.91,597.14 282.04,591.05 295.00,584.84 C300.77,582.08 306.89,579.12 308.58,578.27 L 311.66 576.73 L 307.47 572.87 C302.65,568.42 297.96,560.14 295.39,551.50 C293.34,544.61 293.14,527.65 295.00,518.20 C301.53,485.10 323.06,457.71 351.69,446.06 C360.42,442.51 369.23,441.00 381.27,441.00 C402.77,441.00 418.54,448.11 438.05,466.60 C442.92,471.22 447.27,475.03 447.71,475.06 C448.14,475.10 458.57,475.68 470.88,476.36 L 493.26 477.60 L 495.63 480.36 C500.20,485.66 498.09,500.66 491.96,506.54 C486.97,511.32 488.67,511.41 495.25,506.72 C512.52,494.42 531.12,489.97 550.90,493.42 C581.87,498.81 604.12,519.20 612.62,550.00 C613.93,554.74 614.41,560.01 614.39,569.50 C614.36,583.21 613.32,588.51 608.35,600.35 C605.57,606.97 605.30,606.12 613.31,615.97 C617.05,620.57 618.73,621.77 623.86,623.47 C629.60,625.38 631.24,626.76 650.74,646.09 C662.16,657.41 677.58,672.39 685.00,679.38 C699.50,693.02 702.59,697.07 703.58,703.68 C705.51,716.55 693.45,731.04 680.85,730.98 C671.50,730.93 670.51,730.08 633.40,690.01 C622.46,678.19 605.22,660.28 595.11,650.21 L 576.72 631.90 L 570.47 634.40 C552.72,641.51 529.01,640.14 511.00,630.97 C488.38,619.45 471.75,597.23 468.44,574.11 C467.68,568.83 467.05,562.59 467.03,560.25 C467.01,557.91 466.79,556.00 466.53,556.00 C466.27,556.00 462.56,558.07 458.28,560.61 C454.00,563.14 447.12,566.91 443.00,568.99 C422.97,579.09 413.32,591.05 411.54,608.00 C410.59,617.05 410.31,617.70 406.86,618.90 C404.12,619.85 403.51,619.67 400.90,617.06 C398.22,614.37 398.00,613.59 398.00,606.73 C398.00,591.55 405.93,577.02 419.83,566.76 C422.88,564.50 431.53,559.42 439.06,555.47 C456.90,546.09 462.88,542.05 468.22,535.71 C475.03,527.63 476.54,525.07 479.37,516.83 C482.99,506.27 482.88,504.39 478.60,503.59 C473.97,502.72 470.54,499.80 468.68,495.15 L 467.12 491.26 L 454.81 490.53 C448.04,490.13 441.60,489.33 440.50,488.75 C439.40,488.18 433.96,483.16 428.42,477.60 C418.05,467.21 411.69,462.74 400.78,458.15 C394.94,455.70 393.48,455.52 380.00,455.57 C366.70,455.62 364.93,455.85 358.63,458.31 C338.04,466.37 324.36,480.34 314.59,503.29 C310.80,512.18 307.00,528.05 307.00,534.96 C307.00,554.81 319.23,569.92 335.35,569.98 C348.74,570.03 359.86,563.18 362.90,553.00 C365.95,542.78 363.95,522.47 357.15,494.68 C355.24,486.86 355.24,486.85 357.30,484.94 C359.80,482.61 365.75,481.35 367.90,482.71 C372.12,485.37 378.03,517.17 378.27,538.50 C378.59,567.54 367.91,579.97 337.50,585.96 C317.65,589.87 301.65,596.44 284.50,607.73 C260.69,623.39 246.43,640.97 238.43,664.51 C235.48,673.18 234.67,686.21 236.41,696.73 C237.62,704.05 236.61,705.01 227.63,704.98 C209.75,704.93 192.52,693.61 180.68,674.14 L 177.86 669.50 L 178.50 677.00 C180.86,704.39 192.20,722.14 210.79,727.54 C222.66,730.99 227.76,731.47 252.50,731.46 C272.83,731.46 278.76,731.14 284.27,729.74 C297.56,726.36 302.00,722.58 302.00,714.61 C302.00,709.19 299.06,705.81 290.92,701.87 C287.94,700.42 282.01,697.55 277.74,695.49 C263.23,688.47 257.67,681.24 257.90,669.70 C258.04,662.63 259.69,658.46 264.41,653.23 C268.88,648.28 275.23,645.48 285.11,644.11 C295.34,642.70 308.92,645.10 315.67,649.52 C317.95,651.02 318.18,651.70 317.73,655.69 C317.00,662.19 316.19,662.59 308.83,660.09 C305.35,658.91 299.31,657.67 295.41,657.34 C276.07,655.69 266.08,668.60 278.47,679.24 C279.59,680.20 285.60,683.54 291.83,686.67 C305.76,693.65 311.12,697.65 314.72,703.77 C317.02,707.69 317.49,709.61 317.43,715.00 C317.33,723.12 314.93,728.08 308.12,734.20 C300.24,741.29 290.51,744.26 269.57,745.96 C255.01,747.14 246.31,747.11 230.56,745.83 ZM 675.40 711.38 C677.69,705.82 684.39,701.02 689.95,700.97 L 693.50 700.93 L 691.14 698.97 C683.71,692.77 668.94,703.65 671.41,713.50 C672.31,717.10 673.25,716.60 675.40,711.38 ZM 675.00 690.59 C675.00,688.98 668.00,681.73 646.62,661.20 C635.62,650.63 631.18,646.97 629.62,647.20 C628.45,647.36 627.69,647.95 627.93,648.50 C628.92,650.79 672.05,692.00 673.46,692.00 C674.31,692.00 675.00,691.36 675.00,690.59 ZM 612.01 646.72 C615.48,643.54 621.43,640.00 623.31,640.00 C624.17,640.00 625.16,639.55 625.50,639.00 C626.39,637.57 621.56,635.64 618.80,636.33 C614.37,637.45 604.73,649.00 608.23,649.00 C608.94,649.00 610.64,647.97 612.01,646.72 ZM 607.83 631.87 L 610.10 630.24 L 604.80 625.14 C601.89,622.34 598.91,620.03 598.18,620.02 C597.46,620.01 595.30,621.20 593.38,622.66 L 589.90 625.32 L 594.11 629.61 C599.65,635.25 602.47,635.72 607.83,631.87 ZM 555.32 624.97 C565.72,623.47 578.08,617.17 585.50,609.58 C596.32,598.51 601.00,586.44 601.00,569.57 C601.00,553.94 597.53,542.98 588.99,531.54 C580.18,519.77 567.72,511.35 554.00,507.91 C546.16,505.95 529.89,506.20 522.50,508.40 C506.44,513.17 493.15,523.81 486.62,537.11 C471.10,568.76 488.31,607.88 524.00,622.03 C533.63,625.84 543.13,626.74 555.32,624.97 ZM 337.68 737.57 C327.65,732.66 322.86,725.36 322.20,713.96 C321.82,707.31 322.08,705.78 324.34,701.32 C327.60,694.89 334.65,688.64 340.50,687.00 C347.54,685.03 358.11,686.15 363.00,689.38 C367.48,692.35 367.86,694.07 365.06,698.67 L 363.13 701.84 L 358.31 700.35 C355.54,699.50 351.24,699.04 348.18,699.27 C343.83,699.60 342.28,700.26 339.68,702.86 C336.77,705.77 336.50,706.58 336.50,712.44 C336.50,717.89 336.87,719.24 339.00,721.51 C344.51,727.41 351.14,728.40 359.28,724.54 C363.85,722.37 365.53,722.95 367.68,727.45 C369.27,730.79 369.26,731.06 367.42,733.12 C361.40,739.89 346.85,742.07 337.68,737.57 ZM 384.00 737.92 C370.52,731.83 363.48,715.04 369.02,702.18 C372.08,695.06 379.34,688.60 386.11,686.97 C392.51,685.44 403.47,686.16 407.81,688.40 C413.09,691.13 418.58,697.31 420.36,702.54 C422.31,708.27 422.42,717.08 420.60,722.17 C415.57,736.25 397.50,744.03 384.00,737.92 ZM 400.57 725.54 C404.68,723.82 407.28,718.75 407.31,712.36 C407.36,703.69 402.79,698.98 394.35,699.01 C389.31,699.03 386.08,700.76 383.28,704.91 C379.06,711.18 381.17,720.24 387.90,724.73 C391.83,727.36 395.63,727.60 400.57,725.54 ZM 436.50 738.12 C427.27,733.88 426.00,729.99 426.00,705.99 L 426.00 686.91 L 432.75 687.20 L 439.50 687.50 L 440.00 704.84 L 440.50 722.18 L 443.42 724.69 C445.87,726.80 446.98,727.10 450.32,726.57 C455.01,725.82 459.98,722.56 460.06,720.18 C460.09,719.26 460.10,713.33 460.09,707.00 C460.08,700.67 460.40,693.70 460.80,691.50 L 461.53 687.50 L 468.02 687.50 L 474.50 687.50 L 474.77 711.88 C474.96,729.02 474.70,736.66 473.90,737.63 C472.14,739.74 465.35,739.35 463.00,737.00 C461.90,735.90 461.00,734.47 461.00,733.83 C461.00,733.18 459.98,733.61 458.74,734.78 C453.20,739.98 443.67,741.41 436.50,738.12 ZM 494.96 737.75 C488.34,734.41 487.18,731.25 486.37,714.22 L 485.69 700.00 L 483.10 699.98 C478.67,699.96 477.86,698.79 478.19,692.91 L 478.50 687.50 L 482.21 687.19 L 485.92 686.88 L 486.21 678.19 L 486.50 669.50 L 492.24 668.64 C500.87,667.34 501.00,667.48 501.00,677.97 L 501.00 687.00 L 507.55 687.00 L 514.10 687.00 L 513.80 693.25 L 513.50 699.50 L 507.25 699.80 L 501.00 700.10 L 500.90 707.80 C500.69,725.11 501.23,726.50 508.29,726.50 C512.32,726.50 512.53,726.65 513.12,730.00 C513.46,731.92 513.80,732.96 513.87,732.29 C513.94,731.63 515.96,726.46 518.36,720.79 C530.13,692.97 533.15,685.70 536.99,676.00 C541.92,663.53 545.01,660.00 551.00,660.00 C557.06,660.00 560.01,663.47 565.85,677.50 C568.60,684.10 574.32,697.83 578.55,708.00 C582.78,718.17 586.75,727.40 587.37,728.50 C588.23,730.03 588.62,722.84 589.00,698.00 L 589.50 665.50 L 596.75 665.21 L 604.00 664.91 L 604.00 700.38 C604.00,730.12 603.76,736.09 602.54,737.31 C600.35,739.51 577.65,739.49 575.83,737.30 C575.12,736.44 572.95,731.95 571.02,727.33 L 567.50 718.93 L 551.30 718.63 L 535.10 718.33 L 533.00 723.42 C528.36,734.66 527.55,736.20 525.59,737.57 C521.94,740.13 514.00,739.20 514.00,736.20 C514.00,734.79 513.86,734.80 512.75,736.26 C509.61,740.40 501.55,741.07 494.96,737.75 ZM 562.00 705.83 C562.00,705.18 560.84,701.70 559.42,698.08 C558.00,694.46 555.78,688.81 554.49,685.52 C553.20,682.24 551.73,679.41 551.22,679.24 C550.39,678.96 540.00,703.76 540.00,706.03 C540.00,706.60 544.57,707.00 551.00,707.00 C558.74,707.00 562.00,706.65 562.00,705.83 ZM 407.50 507.46 C403.47,505.42 401.24,502.59 399.98,497.94 C396.34,484.40 416.47,476.94 422.48,489.61 C425.79,496.57 423.34,504.03 416.79,507.01 C411.59,509.37 411.28,509.38 407.50,507.46 ZM 528.00 618.39 C517.43,614.79 510.21,610.08 502.31,601.62 C490.72,589.21 486.52,578.37 486.58,561.00 C486.63,549.98 486.77,549.19 490.15,541.96 C497.58,526.07 511.30,515.53 528.46,512.53 C539.42,510.62 541.27,510.63 550.61,512.55 C562.32,514.97 570.33,519.31 579.10,527.98 C588.46,537.24 593.29,546.36 595.65,559.21 C597.12,567.22 597.11,568.72 595.62,577.71 C593.50,590.41 589.50,598.57 581.51,606.50 C567.97,619.92 546.49,624.69 528.00,618.39 ZM 539.50 609.12 C529.06,606.55 521.00,601.78 513.22,593.59 C505.61,585.59 501.91,578.65 499.96,568.75 C498.57,561.70 497.00,559.77 497.00,565.11 C497.00,569.69 499.79,579.66 502.66,585.31 C505.56,591.05 512.74,599.05 518.50,602.97 C525.21,607.54 534.87,610.95 541.00,610.90 L 546.50 610.85 L 539.50 609.12 ZM 582.88 587.50 C585.33,582.82 585.50,581.63 585.50,569.00 C585.50,555.86 585.41,555.32 582.27,548.67 C576.63,536.78 564.32,526.32 552.08,523.02 C542.35,520.40 523.28,522.54 519.88,526.64 C518.34,528.50 520.22,535.38 524.75,544.50 C534.50,564.14 551.89,581.75 570.00,590.32 C577.75,593.99 579.69,593.56 582.88,587.50 Z" fill="rgba(253,253,253,1)"/>
</g>
</svg>